# xmcd
#
# Track frame offsets: 
#        150
#        21856
#        37816
#        49359
#        67553
#        91639
#        104814
#        128152
#        142636
#        162299
#        192140
#        203812
#        221324
#        236703
#
# Disc length: 3287 seconds
#
# Revision: 1
# Processed by: cddbd v1.5.2PL0 Copyright (c) Steve Scherf et al.
# Submitted via: ExactAudioCopy v0.95a4
#
DISCID=b20cd50e
DTITLE=Justin Hayward - Songwriter
DYEAR=1977
DGENRE=Rock
TTITLE0=Tight Rope
TTITLE1=Songwriter (Part 1)
TTITLE2=Songwriter (Part 2)
TTITLE3=Country Girl
TTITLE4=One Lonely Room
TTITLE5=Lay It On Me
TTITLE6=Stage Door
TTITLE7=Raised On Love
TTITLE8=Doin' Time
TTITLE9=Nostradamus
TTITLE10=Wrong Time, Right Place
TTITLE11=Marie
TTITLE12=Heart Of Steel
TTITLE13=Learning The Game
EXTD=YEAR: 1977
EXTT0=
EXTT1=
EXTT2=
EXTT3=
EXTT4=
EXTT5=
EXTT6=
EXTT7=
EXTT8=
EXTT9=
EXTT10=
EXTT11=
EXTT12=
EXTT13=
PLAYORDER=
